<svg width="884" height="124" viewBox="0 0 884 124" fill="none" xmlns="http://www.w3.org/2000/svg">
<path d="M200.697 24.2727V97H185.321V24.2727H200.697ZM228.192 65.4659V97H213.064V42.4545H227.482V52.0781H228.121C229.328 48.9058 231.353 46.3963 234.194 44.5497C237.034 42.6795 240.479 41.7443 244.527 41.7443C248.315 41.7443 251.618 42.5729 254.435 44.2301C257.252 45.8873 259.442 48.2547 261.005 51.3324C262.567 54.3864 263.348 58.0322 263.348 62.2699V97H248.221V64.9688C248.244 61.6307 247.392 59.0265 245.664 57.1562C243.935 55.2623 241.556 54.3153 238.526 54.3153C236.49 54.3153 234.691 54.7533 233.128 55.6293C231.589 56.5052 230.382 57.7836 229.506 59.4645C228.654 61.1217 228.216 63.1222 228.192 65.4659ZM304.284 42.4545V53.8182H271.436V42.4545H304.284ZM278.893 29.3864H294.021V80.2386C294.021 81.6354 294.234 82.7244 294.661 83.5057C295.087 84.2633 295.679 84.7959 296.436 85.1037C297.217 85.4115 298.117 85.5653 299.135 85.5653C299.845 85.5653 300.555 85.5062 301.266 85.3878C301.976 85.2457 302.52 85.1392 302.899 85.0682L305.278 96.3253C304.521 96.562 303.455 96.8343 302.082 97.142C300.709 97.4735 299.04 97.6747 297.075 97.7457C293.429 97.8878 290.233 97.4025 287.487 96.2898C284.765 95.1771 282.646 93.4489 281.131 91.1051C279.616 88.7614 278.87 85.8021 278.893 82.2273V29.3864ZM338.411 98.0653C332.8 98.0653 327.97 96.929 323.922 94.6562C319.897 92.3598 316.796 89.1165 314.618 84.9261C312.44 80.7121 311.351 75.7287 311.351 69.9759C311.351 64.3651 312.44 59.4408 314.618 55.2031C316.796 50.9654 319.862 47.6629 323.815 45.2955C327.793 42.928 332.456 41.7443 337.807 41.7443C341.405 41.7443 344.755 42.3243 347.857 43.4844C350.982 44.6207 353.704 46.3371 356.024 48.6335C358.368 50.9299 360.191 53.8182 361.493 57.2983C362.795 60.7547 363.446 64.803 363.446 69.4432V73.598H317.388V64.223H349.206C349.206 62.045 348.732 60.1155 347.786 58.4347C346.839 56.7538 345.525 55.4399 343.844 54.4929C342.187 53.5223 340.257 53.0369 338.055 53.0369C335.759 53.0369 333.723 53.5696 331.947 54.6349C330.196 55.6766 328.822 57.0852 327.828 58.8608C326.834 60.6127 326.325 62.5658 326.301 64.7202V73.6335C326.301 76.3324 326.798 78.6643 327.793 80.6293C328.811 82.5942 330.243 84.1094 332.089 85.1747C333.936 86.2401 336.126 86.7727 338.659 86.7727C340.34 86.7727 341.879 86.536 343.276 86.0625C344.672 85.589 345.868 84.8788 346.862 83.9318C347.857 82.9848 348.614 81.8248 349.135 80.4517L363.126 81.375C362.416 84.7367 360.96 87.6723 358.759 90.1818C356.58 92.6676 353.763 94.6089 350.307 96.0057C346.874 97.3788 342.909 98.0653 338.411 98.0653ZM397.892 118.591C392.991 118.591 388.789 117.916 385.286 116.567C381.805 115.241 379.036 113.43 376.976 111.134C374.916 108.837 373.579 106.257 372.963 103.392L386.955 101.51C387.381 102.599 388.055 103.617 388.979 104.564C389.902 105.511 391.121 106.268 392.636 106.837C394.175 107.429 396.045 107.724 398.247 107.724C401.538 107.724 404.249 106.92 406.379 105.31C408.534 103.723 409.611 101.06 409.611 97.3196V87.3409H408.972C408.309 88.8561 407.314 90.2884 405.989 91.6378C404.663 92.9872 402.958 94.0881 400.875 94.9403C398.792 95.7926 396.306 96.2188 393.418 96.2188C389.322 96.2188 385.593 95.2718 382.232 93.3778C378.893 91.4602 376.23 88.5365 374.241 84.6065C372.277 80.6529 371.294 75.6577 371.294 69.6207C371.294 63.4418 372.3 58.2808 374.312 54.1378C376.325 49.9948 379 46.8935 382.338 44.8338C385.7 42.7741 389.381 41.7443 393.382 41.7443C396.436 41.7443 398.993 42.2652 401.053 43.3068C403.112 44.3248 404.769 45.6032 406.024 47.142C407.303 48.6572 408.285 50.1487 408.972 51.6165H409.54V42.4545H424.561V97.5327C424.561 102.173 423.425 106.055 421.152 109.18C418.879 112.305 415.731 114.649 411.706 116.212C407.705 117.798 403.1 118.591 397.892 118.591ZM398.212 84.8551C400.65 84.8551 402.71 84.2514 404.391 83.044C406.095 81.813 407.397 80.0611 408.297 77.7884C409.22 75.492 409.682 72.7457 409.682 69.5497C409.682 66.3537 409.232 63.5838 408.332 61.2401C407.433 58.8726 406.131 57.0379 404.426 55.7358C402.722 54.4337 400.65 53.7827 398.212 53.7827C395.726 53.7827 393.631 54.4574 391.926 55.8068C390.222 57.1326 388.931 58.9792 388.055 61.3466C387.179 63.714 386.741 66.4484 386.741 69.5497C386.741 72.6984 387.179 75.4209 388.055 77.7173C388.955 79.9901 390.245 81.7538 391.926 83.0085C393.631 84.2396 395.726 84.8551 398.212 84.8551ZM436.599 97V42.4545H451.266V51.9716H451.834C452.828 48.5862 454.497 46.0294 456.841 44.3011C459.185 42.5492 461.884 41.6733 464.938 41.6733C465.695 41.6733 466.512 41.7206 467.388 41.8153C468.264 41.91 469.033 42.0402 469.696 42.206V55.6293C468.986 55.4162 468.003 55.2268 466.749 55.0611C465.494 54.8954 464.346 54.8125 463.304 54.8125C461.079 54.8125 459.09 55.2978 457.338 56.2685C455.61 57.2154 454.237 58.5412 453.219 60.2457C452.224 61.9503 451.727 63.9152 451.727 66.1406V97H436.599ZM491.509 98.0298C488.029 98.0298 484.927 97.4261 482.205 96.2188C479.482 94.9877 477.328 93.1766 475.742 90.7855C474.179 88.3707 473.398 85.3641 473.398 81.7656C473.398 78.7353 473.954 76.1903 475.067 74.1307C476.18 72.071 477.695 70.4138 479.613 69.1591C481.53 67.9044 483.708 66.9574 486.147 66.3182C488.609 65.679 491.189 65.2292 493.888 64.9688C497.06 64.6373 499.617 64.3295 501.559 64.0455C503.5 63.7377 504.909 63.2879 505.784 62.696C506.66 62.1042 507.098 61.2282 507.098 60.0682V59.8551C507.098 57.6061 506.388 55.866 504.968 54.6349C503.571 53.4039 501.582 52.7884 499.002 52.7884C496.279 52.7884 494.113 53.392 492.503 54.5994C490.893 55.7831 489.828 57.2746 489.307 59.0739L475.316 57.9375C476.026 54.6231 477.423 51.7585 479.506 49.3438C481.589 46.9053 484.276 45.035 487.567 43.733C490.882 42.4072 494.717 41.7443 499.073 41.7443C502.103 41.7443 505.003 42.0994 507.773 42.8097C510.567 43.5199 513.041 44.6207 515.195 46.1122C517.373 47.6037 519.089 49.5213 520.344 51.8651C521.599 54.1851 522.226 56.9669 522.226 60.2102V97H507.88V89.4361H507.453C506.578 91.1406 505.406 92.6439 503.938 93.946C502.47 95.2244 500.706 96.2306 498.647 96.9645C496.587 97.6747 494.208 98.0298 491.509 98.0298ZM495.841 87.5895C498.067 87.5895 500.032 87.1515 501.736 86.2756C503.441 85.3759 504.778 84.1686 505.749 82.6534C506.72 81.1383 507.205 79.4219 507.205 77.5043V71.7159C506.731 72.0237 506.08 72.3078 505.252 72.5682C504.447 72.8049 503.535 73.0298 502.517 73.2429C501.499 73.4323 500.481 73.6098 499.463 73.7756C498.445 73.9176 497.522 74.0478 496.694 74.1662C494.918 74.4266 493.367 74.8409 492.042 75.4091C490.716 75.9773 489.686 76.7467 488.952 77.7173C488.218 78.6643 487.851 79.848 487.851 81.2685C487.851 83.3281 488.597 84.9025 490.088 85.9915C491.604 87.0568 493.521 87.5895 495.841 87.5895ZM562.975 42.4545V53.8182H530.127V42.4545H562.975ZM537.585 29.3864H552.713V80.2386C552.713 81.6354 552.926 82.7244 553.352 83.5057C553.778 84.2633 554.37 84.7959 555.127 85.1037C555.909 85.4115 556.808 85.5653 557.826 85.5653C558.537 85.5653 559.247 85.5062 559.957 85.3878C560.667 85.2457 561.212 85.1392 561.591 85.0682L563.97 96.3253C563.212 96.562 562.147 96.8343 560.774 97.142C559.401 97.4735 557.732 97.6747 555.767 97.7457C552.121 97.8878 548.925 97.4025 546.179 96.2898C543.456 95.1771 541.337 93.4489 539.822 91.1051C538.307 88.7614 537.561 85.8021 537.585 82.2273V29.3864ZM572.83 97V42.4545H587.958V97H572.83ZM580.429 35.4233C578.18 35.4233 576.251 34.6776 574.641 33.1861C573.055 31.6709 572.262 29.8598 572.262 27.7528C572.262 25.6695 573.055 23.8821 574.641 22.3906C576.251 20.8755 578.18 20.1179 580.429 20.1179C582.678 20.1179 584.596 20.8755 586.182 22.3906C587.792 23.8821 588.597 25.6695 588.597 27.7528C588.597 29.8598 587.792 31.6709 586.182 33.1861C584.596 34.6776 582.678 35.4233 580.429 35.4233ZM624.721 98.0653C619.205 98.0653 614.434 96.8935 610.41 94.5497C606.409 92.1823 603.319 88.8916 601.141 84.6776C598.963 80.4399 597.874 75.5275 597.874 69.9403C597.874 64.3059 598.963 59.3816 601.141 55.1676C603.319 50.9299 606.409 47.6392 610.41 45.2955C614.434 42.928 619.205 41.7443 624.721 41.7443C630.237 41.7443 634.996 42.928 638.996 45.2955C643.021 47.6392 646.122 50.9299 648.3 55.1676C650.478 59.3816 651.567 64.3059 651.567 69.9403C651.567 75.5275 650.478 80.4399 648.3 84.6776C646.122 88.8916 643.021 92.1823 638.996 94.5497C634.996 96.8935 630.237 98.0653 624.721 98.0653ZM624.792 86.3466C627.301 86.3466 629.397 85.6364 631.077 84.2159C632.758 82.7718 634.025 80.8068 634.877 78.321C635.753 75.8352 636.191 73.0062 636.191 69.8338C636.191 66.6615 635.753 63.8324 634.877 61.3466C634.025 58.8608 632.758 56.8958 631.077 55.4517C629.397 54.0076 627.301 53.2855 624.792 53.2855C622.259 53.2855 620.128 54.0076 618.4 55.4517C616.695 56.8958 615.405 58.8608 614.529 61.3466C613.677 63.8324 613.251 66.6615 613.251 69.8338C613.251 73.0062 613.677 75.8352 614.529 78.321C615.405 80.8068 616.695 82.7718 618.4 84.2159C620.128 85.6364 622.259 86.3466 624.792 86.3466ZM676.532 65.4659V97H661.404V42.4545H675.822V52.0781H676.461C677.668 48.9058 679.692 46.3963 682.533 44.5497C685.374 42.6795 688.819 41.7443 692.867 41.7443C696.655 41.7443 699.958 42.5729 702.775 44.2301C705.592 45.8873 707.782 48.2547 709.344 51.3324C710.907 54.3864 711.688 58.0322 711.688 62.2699V97H696.56V64.9688C696.584 61.6307 695.732 59.0265 694.004 57.1562C692.275 55.2623 689.896 54.3153 686.866 54.3153C684.83 54.3153 683.031 54.7533 681.468 55.6293C679.929 56.5052 678.722 57.7836 677.846 59.4645C676.994 61.1217 676.556 63.1222 676.532 65.4659ZM790.728 60.6364C790.728 68.5672 789.224 75.3144 786.218 80.8778C783.235 86.4413 779.163 90.6908 774.002 93.6264C768.864 96.5384 763.088 97.9943 756.672 97.9943C750.209 97.9943 744.409 96.5265 739.272 93.5909C734.134 90.6553 730.074 86.4058 727.091 80.8423C724.108 75.2789 722.617 68.5436 722.617 60.6364C722.617 52.7055 724.108 45.9583 727.091 40.3949C730.074 34.8314 734.134 30.5937 739.272 27.6818C744.409 24.7462 750.209 23.2784 756.672 23.2784C763.088 23.2784 768.864 24.7462 774.002 27.6818C779.163 30.5937 783.235 34.8314 786.218 40.3949C789.224 45.9583 790.728 52.7055 790.728 60.6364ZM775.138 60.6364C775.138 55.4991 774.369 51.1667 772.83 47.6392C771.315 44.1117 769.172 41.4366 766.402 39.6136C763.632 37.7907 760.389 36.8793 756.672 36.8793C752.955 36.8793 749.712 37.7907 746.942 39.6136C744.172 41.4366 742.018 44.1117 740.479 47.6392C738.964 51.1667 738.206 55.4991 738.206 60.6364C738.206 65.7737 738.964 70.1061 740.479 73.6335C742.018 77.161 744.172 79.8362 746.942 81.6591C749.712 83.482 752.955 84.3935 756.672 84.3935C760.389 84.3935 763.632 83.482 766.402 81.6591C769.172 79.8362 771.315 77.161 772.83 73.6335C774.369 70.1061 775.138 65.7737 775.138 60.6364ZM841.571 45.1889C841.287 42.3243 840.068 40.099 837.913 38.5128C835.759 36.9266 832.835 36.1335 829.142 36.1335C826.633 36.1335 824.514 36.4886 822.786 37.1989C821.057 37.8854 819.732 38.8442 818.808 40.0753C817.909 41.3063 817.459 42.7031 817.459 44.2656C817.411 45.5677 817.684 46.7041 818.276 47.6747C818.891 48.6454 819.732 49.4858 820.797 50.196C821.862 50.8826 823.093 51.4863 824.49 52.0071C825.887 52.5043 827.378 52.9304 828.964 53.2855L835.499 54.848C838.671 55.5582 841.583 56.5052 844.234 57.6889C846.886 58.8726 849.182 60.3286 851.124 62.0568C853.065 63.785 854.568 65.821 855.634 68.1648C856.723 70.5085 857.279 73.1955 857.303 76.2259C857.279 80.6766 856.143 84.5355 853.893 87.8026C851.668 91.0459 848.448 93.5672 844.234 95.3665C840.044 97.142 834.99 98.0298 829.071 98.0298C823.2 98.0298 818.086 97.1302 813.73 95.331C809.398 93.5317 806.012 90.8684 803.574 87.3409C801.159 83.7898 799.893 79.3982 799.774 74.1662H814.653C814.819 76.6046 815.518 78.6406 816.749 80.2741C818.003 81.884 819.672 83.1032 821.756 83.9318C823.863 84.7367 826.242 85.1392 828.893 85.1392C831.498 85.1392 833.759 84.7604 835.676 84.0028C837.617 83.2453 839.121 82.1918 840.186 80.8423C841.251 79.4929 841.784 77.9422 841.784 76.1903C841.784 74.5568 841.299 73.1837 840.328 72.071C839.381 70.9583 837.984 70.0114 836.138 69.2301C834.315 68.4489 832.078 67.7386 829.426 67.0994L821.507 65.1108C815.375 63.6193 810.534 61.2874 806.983 58.1151C803.432 54.9427 801.668 50.6695 801.692 45.2955C801.668 40.892 802.84 37.045 805.207 33.7543C807.598 30.4635 810.877 27.8949 815.044 26.0483C819.211 24.2017 823.946 23.2784 829.249 23.2784C834.646 23.2784 839.357 24.2017 843.382 26.0483C847.43 27.8949 850.579 30.4635 852.828 33.7543C855.077 37.045 856.237 40.8565 856.308 45.1889H841.571Z" fill="white"/>
<g clip-path="url(#clip0_836_2)">
<path d="M146 114.222L91.5942 3L92.9716 70.1462L146 114.222Z" fill="#0B5258"/>
<path d="M92.9716 70.1462L91.5942 3L0.344238 79.7877L92.9716 70.1462Z" fill="#1E5D62"/>
<path d="M24.448 59.4714L0.344238 79.7875L92.9716 70.146L92.2829 47.0752C83.5594 51.5516 77.132 60.8488 52.6839 67.3912C41.3625 70.4209 29.3836 64.0626 24.448 59.4714Z" fill="#357F87"/>
<path d="M0 79.788L60.2594 118.698L146 114.222L92.9717 70.1465L0 79.788Z" fill="#243737"/>
</g>
<defs>
<clipPath id="clip0_836_2">
<rect width="146" height="115.698" fill="white" transform="translate(0 3)"/>
</clipPath>
</defs>
</svg>
